<?xml version="1.0" standalone="no"?>
<!DOCTYPE svg PUBLIC "-//W3C//DTD SVG 20010904//EN"
 "http://www.w3.org/TR/2001/REC-SVG-20010904/DTD/svg10.dtd">
<svg version="1.0" xmlns="http://www.w3.org/2000/svg"
 width="24.000000pt" height="24.000000pt" viewBox="0 0 24.000000 24.000000"
 preserveAspectRatio="xMidYMid meet">

<g transform="translate(0.000000,24.000000) scale(0.100000,-0.100000)"
fill="#000000" stroke="none">
<path d="M76 196 c-3 -13 -15 -28 -26 -31 -11 -3 -20 -10 -20 -15 0 -5 9 -12
20 -15 11 -3 23 -18 26 -31 l6 -25 19 30 c10 17 26 31 34 31 8 0 15 5 15 10 0
6 -7 10 -15 10 -8 0 -24 14 -34 31 l-19 30 -6 -25z"/>
<path d="M163 73 c-14 -14 -17 -23 -9 -23 7 0 18 -10 24 -22 8 -18 11 -19 11
-6 1 9 7 21 15 25 12 7 12 11 -2 28 -17 20 -17 20 -39 -2z"/>
</g>
</svg>
