<?xml version="1.0" standalone="no"?>
<!DOCTYPE svg PUBLIC "-//W3C//DTD SVG 20010904//EN"
 "http://www.w3.org/TR/2001/REC-SVG-20010904/DTD/svg10.dtd">
<svg version="1.0" xmlns="http://www.w3.org/2000/svg"
 width="2000.000000pt" height="2000.000000pt" viewBox="0 0 2000.000000 2000.000000"
 preserveAspectRatio="xMidYMid meet">

<g transform="translate(0.000000,2000.000000) scale(0.100000,-0.100000)"
fill="#000000" stroke="none">
<path d="M5355 17518 c-24 -21 -27 -38 -55 -234 -107 -778 -213 -1155 -394
-1409 -54 -75 -172 -191 -247 -241 -256 -170 -579 -261 -1307 -368 -319 -47
-332 -51 -332 -111 0 -59 15 -64 302 -105 864 -124 1230 -246 1477 -489 250
-247 379 -642 501 -1535 32 -231 39 -249 101 -249 48 0 65 28 79 130 146 1092
288 1491 614 1737 254 191 608 295 1380 405 242 35 272 41 288 61 23 28 23 62
0 90 -17 21 -48 27 -323 67 -1047 151 -1406 316 -1632 751 -131 252 -215 595
-307 1241 -16 117 -30 218 -30 223 0 17 -49 58 -69 58 -11 0 -31 -10 -46 -22z
m80 -773 c173 -951 458 -1289 1256 -1490 119 -29 430 -93 472 -96 7 0 -94 -22
-223 -49 -439 -89 -666 -169 -875 -307 -289 -193 -454 -472 -575 -978 -21 -88
-48 -216 -60 -285 -12 -69 -24 -132 -27 -140 -3 -8 -21 66 -40 165 -79 416
-170 690 -294 892 -68 109 -236 283 -337 348 -221 141 -551 251 -987 327 -125
22 -128 23 -85 31 25 4 125 24 222 43 895 176 1221 462 1417 1239 33 132 91
424 92 464 1 48 16 -6 44 -164z"/>
<path d="M13041 17234 c-92 -625 -219 -763 -796 -859 -83 -14 -165 -25 -182
-25 -67 0 -30 -17 65 -29 466 -60 678 -162 782 -374 63 -129 92 -248 148 -607
l8 -55 13 90 c26 180 62 357 91 448 73 228 203 351 445 422 90 26 408 84 468
86 61 1 -2 17 -157 39 -430 61 -612 158 -715 380 -46 98 -78 224 -114 444
l-33 199 -23 -159z"/>
<path d="M10421 16268 c-6 -57 -18 -148 -26 -203 -8 -55 -26 -185 -40 -290
-314 -2295 -645 -3471 -1202 -4273 -457 -657 -1123 -1097 -2133 -1411 -765
-237 -1662 -407 -3350 -635 -96 -13 -168 -26 -160 -29 8 -3 76 -13 150 -22
435 -54 1219 -171 1715 -256 903 -156 1666 -356 2190 -574 1306 -544 1944
-1390 2374 -3149 159 -650 311 -1536 479 -2801 11 -77 21 -133 25 -125 3 8 17
110 32 225 136 1069 307 2065 465 2710 493 2005 1261 2852 3065 3380 703 205
1767 403 3105 575 135 18 252 34 260 37 8 3 -160 29 -375 58 -1494 203 -2437
386 -3153 611 -1149 361 -1840 875 -2311 1717 -175 311 -319 666 -456 1117
-202 667 -371 1539 -554 2860 -22 157 -47 348 -57 425 -9 77 -20 143 -24 148
-3 4 -12 -39 -19 -95z"/>
<path d="M15632 14860 c-25 -24 -25 -20 -52 -220 -43 -316 -106 -558 -179
-681 -126 -215 -355 -312 -914 -390 -186 -26 -207 -35 -207 -93 0 -56 21 -65
202 -92 248 -36 421 -72 544 -113 352 -117 463 -311 558 -981 23 -163 27 -177
52 -198 51 -44 108 -8 119 76 60 440 116 675 198 821 42 75 148 179 223 219
138 72 340 123 704 176 179 27 200 37 200 95 0 53 -30 66 -205 90 -204 28
-428 73 -529 106 -307 101 -430 255 -516 650 -19 91 -80 462 -80 493 0 22 -48
62 -73 62 -13 0 -33 -9 -45 -20z m79 -666 c106 -418 290 -591 739 -699 l74
-18 -129 -34 c-226 -60 -375 -139 -480 -256 -77 -86 -156 -248 -196 -402 -17
-66 -34 -127 -36 -135 -3 -8 -18 35 -33 95 -80 310 -181 462 -390 585 -74 44
-226 99 -345 125 -91 21 -94 18 80 64 303 80 487 230 587 479 35 88 74 217 84
280 4 23 9 41 11 39 2 -3 18 -58 34 -123z"/>
<path d="M7711 6250 c-96 -637 -224 -766 -851 -864 -159 -25 -203 -36 -144
-36 49 0 322 -47 429 -74 113 -29 262 -99 315 -148 81 -76 131 -160 173 -294
28 -88 68 -285 88 -434 15 -109 9 -127 54 154 64 387 155 552 359 651 50 24
125 53 166 65 80 22 404 80 455 81 57 1 -4 16 -159 38 -586 86 -731 223 -820
777 -44 266 -38 260 -65 84z"/>
<path d="M15312 6085 c-101 -707 -232 -929 -627 -1061 -128 -43 -319 -83 -542
-115 -90 -12 -161 -24 -159 -26 2 -2 78 -14 169 -28 345 -51 517 -95 677 -173
78 -38 110 -61 176 -127 70 -69 90 -97 133 -186 77 -160 126 -353 173 -687 12
-89 23 -160 25 -158 1 1 12 65 23 142 79 544 165 775 342 924 146 123 356 194
761 255 89 14 180 28 202 32 33 5 6 11 -145 34 -325 48 -530 99 -662 165 -285
140 -403 372 -488 959 -33 231 -33 231 -58 50z"/>
<path d="M3963 6008 c-27 -13 -40 -46 -48 -123 -12 -113 -63 -400 -90 -505
-113 -448 -300 -572 -1005 -670 -85 -12 -167 -26 -182 -32 -39 -14 -54 -58
-34 -97 19 -36 11 -34 237 -66 572 -81 781 -180 902 -429 65 -134 116 -341
158 -646 11 -85 25 -167 31 -182 11 -30 57 -53 88 -43 36 11 47 45 70 205 67
478 136 686 275 826 138 139 349 209 825 275 139 20 168 27 188 46 27 27 28
63 4 93 -15 18 -44 25 -212 51 -485 72 -666 134 -805 274 -140 140 -213 362
-281 858 -11 81 -23 136 -33 148 -20 23 -60 31 -88 17z m62 -656 c107 -424
276 -596 691 -705 l129 -34 -80 -18 c-107 -23 -267 -80 -335 -117 -214 -118
-329 -288 -405 -602 -14 -54 -26 -101 -28 -103 -3 -2 -10 25 -16 59 -19 96
-77 261 -123 352 -32 60 -64 103 -128 167 -74 75 -100 94 -191 138 -89 43
-323 119 -378 122 -9 0 34 13 94 29 333 86 501 203 615 430 42 83 92 231 110
328 7 34 14 61 16 60 1 -2 14 -49 29 -106z"/>
</g>
</svg>
