<?xml version="1.0" standalone="no"?>
<!DOCTYPE svg PUBLIC "-//W3C//DTD SVG 20010904//EN"
 "http://www.w3.org/TR/2001/REC-SVG-20010904/DTD/svg10.dtd">
<svg version="1.0" xmlns="http://www.w3.org/2000/svg"
 width="24.000000pt" height="24.000000pt" viewBox="0 0 24.000000 24.000000"
 preserveAspectRatio="xMidYMid meet">

<g transform="translate(0.000000,24.000000) scale(0.100000,-0.100000)"
fill="#000000" stroke="none">
<path d="M144 215 c-18 -27 -13 -48 17 -85 l21 -25 24 30 c29 37 31 80 5 95
-31 16 -49 12 -67 -15z m61 -15 c9 -15 -14 -40 -31 -33 -22 8 -18 43 5 43 11
0 23 -5 26 -10z"/>
<path d="M41 179 c-25 -25 -31 -39 -31 -73 0 -111 153 -143 196 -41 20 48 18
62 -5 41 -18 -16 -20 -16 -40 10 -12 15 -24 25 -27 22 -7 -7 18 -48 28 -48 5
0 8 -13 8 -29 0 -23 -6 -31 -30 -40 -61 -21 -120 26 -120 95 l0 28 20 -22 c12
-12 24 -22 29 -22 4 0 8 -14 9 -31 1 -41 9 -47 32 -23 19 19 19 19 -10 51 -35
37 -38 47 -11 38 13 -4 20 0 24 17 4 12 2 27 -4 34 -7 8 -6 14 3 17 7 3 1 6
-14 6 -17 1 -37 -10 -57 -30z"/>
</g>
</svg>
